<?xml version="1.0" encoding="UTF-8"?>
<svg width="183px" height="82px" viewBox="0 0 183 82" version="1.1" xmlns="http://www.w3.org/2000/svg" xmlns:xlink="http://www.w3.org/1999/xlink">
    <title>foster-america</title>
    <g id="Page-1" stroke="none" stroke-width="1" fill="none" fill-rule="evenodd">
        <g id="foster-america" fill-rule="nonzero">
            <path d="M81.4148472,35.8095169 L88.0316594,35.8095169 C88.0316594,37.2500905 88.4334061,38.4320997 89.2368996,39.3555443 C90.0393013,40.2800753 91.1637555,40.7407112 92.6069869,40.7407112 C93.6408297,40.7407112 94.5262009,40.4430361 95.2620087,39.8444267 C95.9967249,39.2479901 96.364629,38.4320997 96.364629,37.3989281 C96.364629,36.3125226 95.9290393,35.4705584 95.0578603,34.871949 C94.3766376,34.4102267 92.1157205,33.9289491 90.7412664,33.424857 C89.3646288,32.9218512 88.3919214,32.5492142 87.8209607,32.3036865 C86.8395197,31.8962845 85.9290393,31.4486854 85.0840611,30.9587166 C83.3962882,30.0081118 82.2248908,28.7033389 81.5720524,27.0454842 C81.1899563,26.1491997 81,25.1442746 81,24.0296227 C81,21.4494097 82.0655022,19.42435 84.1943231,17.9566162 C86.0796943,16.6518433 88.3733624,16 91.0753275,16 C94.0251092,16 96.427948,16.7746071 98.284934,18.3238213 C100.277293,19.9545158 101.275109,22.2098935 101.275109,25.0899544 L94.6593886,25.0899544 C94.6593886,22.3185341 93.4748908,20.9311943 91.1069869,20.9311943 C90.1266376,20.9311943 89.3231441,21.1778084 88.6975983,21.6666908 C87.9901747,22.1838198 87.6353712,22.9182299 87.6353712,23.8720939 C87.6353712,25.450641 88.9967249,26.7021801 91.7194323,27.6277975 C93.3537118,28.1992468 94.7008734,28.7022525 95.7631004,29.1379011 C96.960699,29.6832766 99.364629,30.4035634 100.508734,31.3020207 C101.46179,32.0646773 102.182314,33.1662925 102.673581,34.6090389 C102.89083,35.3173752 103,36.0648222 103,36.854639 C103,39.847686 101.934498,42.1617296 99.804585,43.7945969 C97.865721,45.2645035 95.3406114,46 92.2281659,46 C89.0054585,46 86.3973799,45.0885058 84.4050218,43.2687767 C82.4115721,41.4479612 81.4148472,38.9622655 81.4148472,35.8095169" id="Fill-28" fill="#000000"></path>
            <polygon id="Fill-29" fill="#000000" points="43 34.974258 31.57173 34.974258 31.57173 45 25 45 25 16 43 16 43 21.634969 31.57173 21.634969 31.57173 29.4642472 43 29.4642472"></polygon>
            <path d="M56.3293839,37.0707296 C57.3897589,38.3619855 58.3926437,39.1757287 59.3412322,39.5141494 C59.9544612,39.7386681 61.0148362,39.8503798 62.5212927,39.8503798 C65.0593791,39.8503798 67.1237036,38.9380675 68.7132015,37.1134429 C70.3026994,35.287723 71.096916,33.0841547 71.096916,30.4994524 C71.096916,27.9169405 70.3026994,25.712277 68.7132015,23.8865571 C67.1237036,22.0619325 65.0593791,21.1496202 62.5212927,21.1496202 C59.9821416,21.1496202 57.9188818,22.054266 56.3293839,23.8657481 C54.739886,25.6772302 53.9446047,27.8884649 53.9446047,30.4994524 C53.9446047,33.054584 54.739886,35.2450097 56.3293839,37.0707296 M62.5212927,46 C58.0306683,46 54.321485,44.5400813 51.3926781,41.6191486 C48.4649358,38.6993111 47,34.9931108 47,30.4994524 C47,26.0068892 48.4649358,22.3006889 51.3926781,19.3797562 C54.321485,16.4599187 58.0306683,15 62.5212927,15 C66.9831719,15 70.6795796,16.4599187 73.6073219,19.3797562 C76.5361289,22.3006889 78,26.0068892 78,30.4994524 C78,34.9931108 76.5361289,38.6993111 73.6073219,41.6191486 C70.6795796,44.5400813 66.9831719,46 62.5212927,46" id="Fill-30" fill="#000000"></path>
            <polygon id="Fill-31" fill="#000000" points="139 21.4270644 129.43202 21.4270644 129.43202 27.9733665 139 27.9733665 139 33.2345381 129.43202 33.2345381 129.43202 39.5729356 139 39.5729356 139 45 124 45 124 16 139 16"></polygon>
            <path d="M153.748135,21.4270644 L150.190764,21.4270644 L150.190764,31.53683 L153.748135,31.53683 C155.02167,31.53683 156.738544,31.0488466 157.529307,30.0739571 C158.31794,29.0990676 158.713321,27.9022696 158.713321,26.4814086 C158.713321,25.0616248 158.31794,23.8648267 157.529307,22.88886 C156.738544,21.9139705 155.02167,21.4270644 153.748135,21.4270644 L153.748135,21.4270644 Z M144,45 L144,16 L154.550622,16 C157.353464,16 160.363055,16.9888934 162.209947,18.9634486 C164.056838,20.9401582 164.980817,23.4479403 164.980817,26.4878719 C164.980817,28.533524 164.515098,30.3917388 163.581528,32.0625163 C162.650089,33.7343709 160.653996,34.9990342 158.969094,35.8554288 L165,45 L157.834103,45 L152.410657,36.9628171 L150.190764,36.9628171 L150.190764,45 L144,45 Z" id="Fill-32" fill="#000000"></path>
            <polygon id="Fill-33" fill="#000000" points="45 69.3859955 52.4069018 52 59 52 59 81 52.6495399 81 52.6495399 66.4827637 46.2733129 81 43.6322086 81 37.3504601 66.4827637 37.3504601 81 31 81 31 52 37.6961656 52"></polygon>
            <polygon id="Fill-34" fill="#000000" points="81 57.4270644 70.1846832 57.4270644 70.1846832 63.9733665 80.301221 63.9733665 80.301221 69.2345381 70.1846832 69.2345381 70.1846832 75.5729356 81 75.5729356 81 81 64 81 64 52 81 52"></polygon>
            <path d="M95.4329892,57.4270644 L91.1911482,57.4270644 L91.1911482,67.53683 L95.4329892,67.53683 C96.70674,67.53683 97.738598,67.0488466 98.528563,66.0739571 C99.318529,65.0990676 99.712966,63.9022696 99.712966,62.4814086 C99.712966,61.0605475 99.318529,59.8648267 98.528563,58.88886 C97.738598,57.9139705 96.70674,57.4270644 95.4329892,57.4270644 L95.4329892,57.4270644 Z M85,81 L85,52 L96.23603,52 C99.038499,52 101.362632,52.9888934 103.209516,54.9634486 C105.05749,56.9401582 105.980387,59.4479403 105.980387,62.4878719 C105.980387,64.533524 105.514035,66.3917388 104.581331,68.0625163 C103.648628,69.7343709 102.33892,70.9990342 100.653297,71.8554288 L106,81 L98.834743,81 L94.0949515,72.9628171 L91.1911482,72.9628171 L91.1911482,81 L85,81 Z" id="Fill-35" fill="#000000"></path>
            <path d="M153.960027,63.214909 L147.13443,63.214909 C146.78332,61.305953 145.96226,59.8175587 144.670172,58.7497262 C143.378083,57.6840841 141.085599,57.1507154 139.227412,57.1507154 C136.668083,57.1507154 134.60247,58.0345522 133.026252,59.803321 C131.451115,61.5731849 130.663546,63.790991 130.663546,66.4578343 C130.663546,69.2670553 131.478123,71.5330507 133.107278,73.2602014 C134.736433,74.9884473 136.884151,75.851475 139.549354,75.851475 C141.111527,75.851475 143.256005,75.3739622 144.549174,74.4189366 C145.841262,73.4650062 146.675285,72.2153683 147.052325,70.670023 L154,70.670023 C153.380964,74.1812754 151.724801,76.9751634 149.03259,79.0527822 C146.473262,81.0186893 142.713674,82 139.186359,82 C134.769923,82 131.134575,80.554319 128.280313,77.6618619 C125.426051,74.7704999 124,71.0347288 124,66.4578343 C124,62.0222222 125.406604,58.3357357 128.220894,55.4016605 C131.034103,52.4675852 134.567899,51 138.823364,51 C142.673701,51 146.609385,52.0262144 149.194642,54.0753577 C151.885772,56.2657834 153.476034,59.3126656 153.960027,63.214909" id="Fill-36" fill="#000000"></path>
            <path d="M168.959636,60.2857143 L164.763885,72.2166258 L173.073596,72.2166258 L168.959636,60.2857143 Z M155,81 L165.896206,52 L171.982701,52 L183,81 L175.810926,81 L174.707284,77.4786791 L163.170561,77.4786791 L162.06692,81 L155,81 Z" id="Fill-37" fill="#000000"></path>
            <polygon id="Fill-38" fill="#FF3C3A" points="113.439584 0 96 11.6261496 98.148082 15.2641335 111.027967 8.7463463 111.124776 45 117.618501 45 115.625314 10.0948171 123.324848 13.505026 126 10.3493263"></polygon>
            <polygon id="Fill-39" fill="#FF3C3A" points="111 52 111.082955 81 120 81 118.240909 52"></polygon>
            <path d="M13.9596358,60.2857143 L9.7638847,72.2166258 L18.0735964,72.2166258 L13.9596358,60.2857143 Z M0,81 L10.8962064,52 L16.9827011,52 L28,81 L20.8109256,81 L19.7072838,77.4786791 L8.1705615,77.4786791 L7.0669196,81 L0,81 Z" id="Fill-40" fill="#000000"></path>
        </g>
    </g>
</svg>