<?xml version="1.0" encoding="UTF-8"?>
<svg width="186px" height="25px" viewBox="0 0 186 25" version="1.1" xmlns="http://www.w3.org/2000/svg" xmlns:xlink="http://www.w3.org/1999/xlink">
    <title>bloom</title>
    <g id="Page-1" stroke="none" stroke-width="1" fill="none" fill-rule="evenodd">
        <g id="bloom" transform="translate(0.9899, -0)" fill="#000000" fill-rule="nonzero">
            <path d="M43.3300647,2.06001118 C42.812995,1.49047998 42.1783572,1.04009185 41.4700647,0.740011177 C40.5934398,0.389002099 39.6539426,0.222207309 38.7100647,0.250011177 L33.7900647,0.250011177 L33.7900647,23.7600112 L38.3800647,23.7600112 C40.5800647,23.7600112 42.1800647,23.2100112 43.1800647,22.1100112 C44.2600447,20.7675228 44.7986855,19.0695558 44.6900647,17.3500112 L44.6900647,16.0000112 C44.7429347,14.968802 44.5474567,13.9399705 44.1200647,13.0000112 C43.7468125,12.2581599 43.1285571,11.6681676 42.3700647,11.3300112 C42.7270797,11.1286034 43.0622109,10.8906602 43.3700647,10.6200112 C43.966936,10.0981144 44.3776387,9.39605849 44.5400647,8.62001118 C44.6482181,8.09021348 44.7018311,7.55073259 44.7000647,7.01001118 L44.7000647,6.20001118 C44.6930605,5.45488781 44.5819868,4.71439685 44.3700647,4.00001118 C44.1718124,3.28411826 43.8165376,2.62139402 43.3300647,2.06001118 Z M41.4500647,18.0000112 C41.4212202,18.4408655 41.2984782,18.8704623 41.0900647,19.2600112 C40.8859173,19.6181275 40.5794974,19.9071372 40.2100647,20.0900112 C39.703079,20.3099928 39.1519437,20.4092656 38.6000647,20.3800112 L37.1500647,20.3800112 L37.1500647,12.8700112 L38.6300647,12.8700112 C39.1368203,12.8515388 39.6424668,12.9295917 40.1200647,13.1000112 C40.4717862,13.2389244 40.7769175,13.4747076 41.0000647,13.7800112 C41.2194423,14.110301 41.3597404,14.4867105 41.4100647,14.8800112 C41.4782268,15.3971917 41.5116351,15.9183606 41.5100647,16.4400112 C41.5100647,17.0000112 41.5100647,17.5300112 41.4500647,18.0100112 L41.4500647,18.0000112 Z M40.9400647,9.00001118 C40.3719431,9.63644153 39.5259447,9.95088339 38.6800647,9.84001118 L37.1600647,9.84001118 L37.1600647,3.42001118 L38.5400647,3.42001118 C39.3960976,3.31875922 40.2521367,3.60900425 40.8700647,4.21001118 C41.3475328,4.90798852 41.5764642,5.74622963 41.5200647,6.59001118 C41.5679804,7.44878319 41.3665581,8.30309174 40.9400647,9.05001118 L40.9400647,9.00001118 Z" id="Shape"></path>
            <polygon id="Path" points="51.2200647 0.250011177 47.8500647 0.250011177 47.8500647 23.7600112 57.8900647 23.7600112 57.8900647 20.3900112 51.2200647 20.3900112"></polygon>
            <path d="M69.3700647,1.49001118 C68.8375549,1.01760749 68.21986,0.651063276 67.5500647,0.410011177 C66.2393463,-0.0702896716 64.800783,-0.0702896716 63.4900647,0.410011177 C62.8214243,0.647149882 62.2062882,1.01419243 61.6800647,1.49001118 C61.1185615,1.98444009 60.6715272,2.5952732 60.3700647,3.28001118 C60.028251,4.07174256 59.8611218,4.92785323 59.8800647,5.79001118 L59.8800647,18.2100112 C59.8582257,19.0788804 60.0254147,19.942122 60.3700647,20.7400112 C60.6752163,21.4197311 61.121815,22.02656 61.6800647,22.5200112 C62.2104548,22.9901641 62.8244318,23.356515 63.4900647,23.6000112 C64.800783,24.080312 66.2393463,24.080312 67.5500647,23.6000112 C68.21986,23.3589591 68.8375549,22.9924149 69.3700647,22.5200112 C69.9283143,22.02656 70.374913,21.4197311 70.6800647,20.7400112 C71.0217048,19.9411955 71.1887656,19.0786162 71.1700647,18.2100112 L71.1700647,5.79001118 C71.1890075,4.92785323 71.0218783,4.07174256 70.6800647,3.28001118 C70.375069,2.59731782 69.9285504,1.98718944 69.3700647,1.49001118 Z M67.8000647,18.2100112 C67.8583402,18.8801773 67.6123476,19.541053 67.1300647,20.0100112 C66.1984608,20.7796444 64.8516686,20.7796444 63.9200647,20.0100112 C63.4328862,19.5436975 63.1828988,18.8819661 63.2400647,18.2100112 L63.2400647,5.79001118 C63.1902768,5.12205776 63.4393421,4.46642993 63.9200647,4.00001118 C64.8516686,3.23037795 66.1984608,3.23037795 67.1300647,4.00001118 C67.6111301,4.46976244 67.8569005,5.13004113 67.8000647,5.80001118 L67.8000647,18.2100112 Z" id="Shape"></path>
            <path d="M83.4400647,1.49001118 C82.9101028,1.01412845 82.2916929,0.647159922 81.6200647,0.410011177 C80.3093463,-0.0702896716 78.870783,-0.0702896716 77.5600647,0.410011177 C76.8894199,0.649258036 76.2713969,1.01599692 75.7400647,1.49001118 C75.1847387,1.98777487 74.7416059,2.59793456 74.4400647,3.28001118 C74.1012091,4.07297267 73.9309386,4.92773065 73.9400647,5.79001118 L73.9400647,18.2100112 C73.9213769,19.0796172 74.091984,19.9428891 74.4400647,20.7400112 C74.7452163,21.4197311 75.191815,22.02656 75.7500647,22.5200112 C76.2825744,22.9924149 76.9002693,23.3589591 77.5700647,23.6000112 C78.880783,24.080312 80.3193463,24.080312 81.6300647,23.6000112 C82.29986,23.3589591 82.9175549,22.9924149 83.4500647,22.5200112 C84.0051557,22.0259732 84.4483684,21.4191127 84.7500647,20.7400112 C85.0981454,19.9428891 85.2687525,19.0796172 85.2500647,18.2100112 L85.2500647,5.79001118 C85.2690571,4.9268386 85.0983752,4.07001583 84.7500647,3.28001118 C84.4486021,2.5952732 84.0015678,1.98444009 83.4400647,1.49001118 L83.4400647,1.49001118 Z M81.8700647,18.2100112 C81.9257697,18.8817621 81.6760123,19.5428846 81.1900647,20.0100112 C80.2628796,20.7642228 78.9324879,20.7600392 78.0100647,20.0000112 C77.5228862,19.5336975 77.2728988,18.8719661 77.3300647,18.2000112 L77.3300647,5.79001118 C77.2802768,5.12205776 77.5293421,4.46642993 78.0100647,4.00001118 C78.9384596,3.23192293 80.2816698,3.23192293 81.2100647,4.00001118 C81.6935871,4.46873408 81.9428948,5.12866618 81.8900647,5.80001118 L81.8700647,18.2100112 Z" id="Shape"></path>
            <polygon id="Path" points="95.8400647 12.7000112 95.7700647 12.7000112 91.4500647 0.250011177 88.2100647 0.250011177 88.2100647 23.7600112 91.5800647 23.7600112 91.5800647 9.46001118 91.6500647 9.46001118 94.9500647 19.5700112 96.6300647 19.5700112 99.9700647 9.46001118 100.040065 9.46001118 100.040065 23.7600112 103.400065 23.7600112 103.400065 0.250011177 100.130065 0.250011177"></polygon>
            <polyline id="Path" points="125.000065 15.5500112 124.940065 15.5500112 122.200065 0.250011177 119.620065 0.250011177 116.980065 15.1900112 116.910065 15.1900112 115.230065 0.250011177 111.660065 0.250011177 115.160065 23.7800112 118.330065 23.7800112 120.880065 8.51001118 120.940065 8.51001118 123.520065 23.7800112 126.690065 23.7800112 130.190065 0.250011177 126.620065 0.250011177 125.000065 15.5500112"></polyline>
            <path d="M141.200065,1.49001118 C140.669674,1.01985827 140.055698,0.653507372 139.390065,0.410011177 C138.075881,-0.0701354434 136.634248,-0.0701354434 135.320065,0.410011177 C134.653284,0.651090544 134.038873,1.01770039 133.510065,1.49001118 C132.948561,1.98444009 132.501527,2.5952732 132.200065,3.28001118 C131.858251,4.07174256 131.691122,4.92785323 131.710065,5.79001118 L131.710065,18.2100112 C131.691364,19.0786162 131.858425,19.9411955 132.200065,20.7400112 C132.498186,21.4211743 132.941922,22.0287515 133.500065,22.5200112 C134.028873,22.992322 134.643284,23.3589318 135.310065,23.6000112 C136.624248,24.0801578 138.065881,24.0801578 139.380065,23.6000112 C140.045698,23.356515 140.659674,22.9901641 141.190065,22.5200112 C141.748314,22.02656 142.194913,21.4197311 142.500065,20.7400112 C142.841705,19.9411955 143.008766,19.0786162 142.990065,18.2100112 L142.990065,5.79001118 C143.009007,4.92785323 142.841878,4.07174256 142.500065,3.28001118 C142.199595,2.59731824 141.756308,1.98694615 141.200065,1.49001118 Z M139.630065,18.2100112 C139.698278,18.8690056 139.471272,19.5243915 139.010065,20.0000112 C138.078461,20.7696444 136.731669,20.7696444 135.800065,20.0000112 C135.316552,19.5318559 135.070334,18.8703738 135.130065,18.2000112 L135.130065,5.79001118 C135.073229,5.12004113 135.318999,4.45976244 135.800065,3.99001118 C136.734064,3.22327529 138.08086,3.22747091 139.010065,4.00001118 C139.49113,4.46976244 139.7369,5.13004113 139.680065,5.80001118 L139.630065,18.2100112 Z" id="Shape"></path>
            <path d="M156.690065,10.6700112 C157.148375,9.55441593 157.369726,8.355715 157.340065,7.15001118 C157.340065,2.55001118 155.340065,0.250011177 151.340065,0.250011177 L146.010065,0.250011177 L146.010065,23.7600112 L149.380065,23.7600112 L149.380065,13.7600112 L151.380065,13.7600112 L154.510065,23.7600112 L158.080065,23.7600112 L154.430065,13.0000112 C155.421556,12.4962939 156.216816,11.6764016 156.690065,10.6700112 Z M153.870065,8.67001118 C153.819731,9.07133311 153.690591,9.45875344 153.490065,9.81001118 C153.296001,10.1213874 153.014182,10.3684141 152.680065,10.5200112 C152.229706,10.7027189 151.745744,10.7879235 151.260065,10.7700112 L149.340065,10.7700112 L149.340065,3.42001118 L151.090065,3.42001118 C151.59682,3.40153884 152.102467,3.47959167 152.580065,3.65001118 C152.936962,3.79024143 153.241132,4.03847165 153.450065,4.36001118 C153.672886,4.70781616 153.816289,5.10046787 153.870065,5.51001118 C153.938226,6.03054311 153.971633,6.55503782 153.970065,7.08001118 C153.971932,7.60499355 153.938524,8.12950821 153.870065,8.65001118 L153.870065,8.67001118 Z" id="Shape"></path>
            <polygon id="Path" points="171.770065 0.250011177 168.400065 0.250011177 163.480065 10.9800112 163.410065 10.9800112 163.410065 0.250011177 160.040065 0.250011177 160.040065 23.7600112 163.410065 23.7600112 163.410065 16.7200112 165.230065 13.3200112 169.060065 23.7600112 172.630065 23.7600112 167.180065 9.66001118"></polygon>
            <path d="M185.010065,7.00001118 L185.010065,5.37001118 C185.00773,4.70633994 184.871689,4.04994352 184.610065,3.44001118 C184.345338,2.80642415 183.961768,2.22937242 183.480065,1.74001118 C182.966081,1.22361006 182.358637,0.809597808 181.690065,0.520011177 C180.969616,0.199852365 180.188378,0.0395110247 179.400065,0.0500111768 C178.522654,0.0275635163 177.651348,0.20182476 176.850065,0.560011177 C176.143407,0.875742367 175.515134,1.34353262 175.010065,1.93001118 C174.544674,2.54803971 174.204936,3.25129706 174.010065,4.00001118 C173.760647,4.81295085 173.639195,5.65973945 173.650065,6.51001118 C173.604052,7.77779087 173.857576,9.03856044 174.390065,10.1900112 C175.043894,11.3017186 176.077311,12.1398167 177.300065,12.5500112 L179.720065,13.5500112 C180.064788,13.6928519 180.398958,13.8599369 180.720065,14.0500112 C180.968543,14.1903942 181.175526,14.3939274 181.320065,14.6400112 C181.48332,14.9491142 181.575561,15.2907452 181.590065,15.6400112 C181.640065,16.1400112 181.660065,16.6400112 181.660065,17.1600112 C181.660065,17.6800112 181.660065,18.1600112 181.590065,18.6100112 C181.557729,18.9962631 181.452543,19.3728983 181.280065,19.7200112 C181.112795,20.019077 180.858072,20.2598417 180.550065,20.4100112 C180.129151,20.5971714 179.670149,20.6828063 179.210065,20.6600112 C178.513047,20.7261333 177.827217,20.4503103 177.370065,19.9200112 C177.018657,19.4346977 176.832824,18.8491473 176.840065,18.2500112 L176.840065,17.1200112 L173.470065,17.1200112 L173.470065,18.3800112 C173.458541,19.8812197 174.053489,21.3235184 175.120065,22.3800112 C175.645382,22.8840118 176.26346,23.2813477 176.940065,23.5500112 C177.665693,23.8374155 178.439599,23.9833713 179.220065,23.9800112 C180.161874,24.0022702 181.097127,23.8179503 181.960065,23.4400112 C182.670741,23.1175943 183.28951,22.6225792 183.760065,22.0000112 C184.241644,21.350954 184.582259,20.6084138 184.760065,19.8200112 C184.958024,18.8937141 185.04198,17.9466872 185.010065,17.0000112 C185.016663,16.2346618 184.973201,15.4697008 184.880065,14.7100112 C184.806824,14.0931264 184.634615,13.4920826 184.370065,12.9300112 C184.108576,12.4093454 183.740631,11.9494147 183.290065,11.5800112 C182.746031,11.1491067 182.134434,10.8112081 181.480065,10.5800112 L178.900065,9.58001118 C178.54776,9.43760355 178.212369,9.25649245 177.900065,9.04001118 C177.660589,8.88715955 177.45887,8.68202142 177.310065,8.44001118 C177.174982,8.18590453 177.093308,7.90685112 177.070065,7.62001118 C177.025336,7.23167298 177.005296,6.84088772 177.010065,6.45001118 C177.008167,6.07105358 177.041646,5.69274607 177.110065,5.32001118 C177.1562,4.96748457 177.271761,4.62760057 177.450065,4.32001118 C177.620213,4.03626421 177.861506,3.8018654 178.150065,3.64001118 C178.49921,3.45001864 178.892793,3.35680171 179.290065,3.37001118 C180.006808,3.30012602 180.705781,3.62096615 181.120065,4.21001118 C181.490513,4.81007228 181.678156,5.50504447 181.660065,6.21001118 L181.660065,7.00001118 L185.010065,7.00001118 Z" id="Path"></path>
            <rect id="Rectangle" x="13.0900647" y="0.180011177" width="10.92" height="2.88"></rect>
            <rect id="Rectangle" x="13.0900647" y="4.25001118" width="10.92" height="2.88"></rect>
            <rect id="Rectangle" x="13.0900647" y="8.23001118" width="10.92" height="2.88"></rect>
            <path d="M8.69006466,19.6300112 C7.44742397,19.6300112 6.44006466,20.6373705 6.44006466,21.8800112 C6.44006466,23.1226519 7.44742397,24.1300112 8.69006466,24.1300112 C9.93270535,24.1300112 10.9400647,23.1226519 10.9400647,21.8800112 L10.9400647,21.8800112 C10.9400647,21.2832741 10.7030118,20.7109778 10.2810549,20.2890209 C9.85909807,19.8670641 9.28680176,19.6300112 8.69006466,19.6300112 Z" id="Path"></path>
            <path d="M2.26006466,19.6299888 C1.34912553,19.6259625 0.525629786,20.171583 0.174219535,21.0120218 C-0.177190717,21.8524605 0.0128335534,22.8218613 0.65553495,23.4674319 C1.29823635,24.1130025 2.26678102,24.3073429 3.10877674,23.9596797 C3.95077246,23.6120165 4.50008701,22.7909593 4.50008701,21.8800112 L4.50008701,21.8800112 C4.50272458,21.2841955 4.26790003,20.7118704 3.8475299,20.2896236 C3.42715976,19.8673768 2.85588628,19.6299888 2.26006466,19.6299888 L2.26006466,19.6299888 Z" id="Path"></path>
            <path d="M8.69006466,13.1100112 C7.44742397,13.1100112 6.44006466,14.1173705 6.44006466,15.3600112 C6.44006466,16.6026519 7.44742397,17.6100112 8.69006466,17.6100112 C9.93270535,17.6100112 10.9400647,16.6026519 10.9400647,15.3600112 L10.9400647,15.3600112 C10.9400647,14.7632741 10.7030118,14.1909778 10.2810549,13.7690209 C9.85909807,13.3470641 9.28680176,13.1100112 8.69006466,13.1100112 Z" id="Path"></path>
            <path d="M2.26006466,13.1099888 C1.34912553,13.1059625 0.525629786,13.651583 0.174219535,14.4920218 C-0.177190717,15.3324605 0.0128335534,16.3018613 0.65553495,16.9474319 C1.29823635,17.5930025 2.26678102,17.7873429 3.10877674,17.4396797 C3.95077246,17.0920165 4.50008701,16.2709593 4.50008701,15.3600112 L4.50008701,15.3600112 C4.50272458,14.7641955 4.26790003,14.1918704 3.8475299,13.7696236 C3.42715976,13.3473768 2.85588628,13.1099888 2.26006466,13.1099888 Z" id="Path"></path>
            <path d="M18.7100647,12.6800022 C16.4401258,12.6759649 14.3914492,14.0402292 13.5199761,16.136219 C12.648503,18.2322088 13.1259993,20.6468082 14.7296585,22.253331 C16.3333177,23.8598539 18.7470613,24.3416574 20.8446026,23.4739252 C22.9421439,22.606193 24.3100647,20.5599536 24.3100647,18.2900112 L24.3100647,18.2900112 C24.3100647,15.1955948 21.8044761,12.6855271 18.7100647,12.6800022 L18.7100647,12.6800022 Z M18.7100647,21.0100112 L18.4000647,21.0100112 L18.7100647,18.3000112 L16.1300647,19.2100112 C15.634959,17.7865641 16.3869888,16.2311874 17.8101367,15.7352223 C19.2332846,15.2392572 20.7891151,15.9903478 21.2859394,17.413196 C21.7827637,18.8360442 21.0326126,20.3923279 19.6100647,20.8900112 C19.3171078,20.9899677 19.009604,21.0406551 18.7000647,21.0400172 L18.7100647,21.0100112 Z" id="Shape"></path>
            <path d="M5.62006466,-8.8817842e-16 C4.42577611,-0.00265168381 3.27963568,0.470598939 2.43514405,1.31509057 C1.59065242,2.1595822 1.1174018,3.30572263 1.12005348,4.50001118 L1.12005348,4.50001118 C1.12005348,6.98001118 5.62006466,11.8300112 5.62006466,11.8300112 C5.62006466,11.8300112 10.1200647,7.00001118 10.1200647,4.50001118 C10.1200647,2.0147298 8.10534604,-8.8817842e-16 5.62006466,-8.8817842e-16 Z" id="Path"></path>
        </g>
    </g>
</svg>