<?xml version="1.0" encoding="UTF-8"?>
<svg width="366px" height="102px" viewBox="0 0 366 102" version="1.1" xmlns="http://www.w3.org/2000/svg" xmlns:xlink="http://www.w3.org/1999/xlink">
    <title>thinkofus</title>
    <g id="Page-1" stroke="none" stroke-width="1" fill="none" fill-rule="evenodd">
        <g id="thinkofus" transform="translate(0, 0.0274)" fill="#000000">
            <path d="M15.5446,29.3465075 L22.4694,29.3465075 L22.4694,39.1378075 L15.5446,39.1378075 L15.5446,60.7466075 C15.5446,64.2186075 16.6584,65.7146075 19.8545,65.7146075 L22.4694,65.7146075 L22.4694,75.6016075 C22.2273,75.6016075 20.1934,76.2286075 16.3194,76.2286075 C7.7965,76.2286075 4.213,71.7916075 4.213,64.0746075 L4.213,39.1378075 L0,39.1378075 L0,29.3465075 L4.213,29.3465075 L4.213,22.0633075 L15.5446,22.0633075 L15.5446,29.3465075 Z" id="Path" fill-rule="nonzero"></path>
            <path d="M51.331,46.5175075 C51.331,41.9836075 49.3939,39.1378075 45.2293,39.1378075 C41.1616,39.1378075 38.9825,42.0800075 38.9825,46.5175075 L38.9825,75.7946075 L27.6509,75.7946075 L27.6509,12.3203075 L38.9825,12.3203075 L38.9825,32.8193075 C40.1447,31.4205075 42.9533,28.8160075 48.5223,28.8160075 C59.079,28.8160075 62.6625,36.1956075 62.6625,45.1187075 L62.6625,75.7466075 L51.331,75.7466075 L51.331,46.5175075 Z" id="Path" fill-rule="nonzero"></path>
            <path d="M67.9895,19.5552075 C67.9895,15.6483075 71.0403,12.5132075 74.7691,12.5132075 C78.5947,12.5132075 81.5486,15.6483075 81.5486,19.5552075 C81.5486,23.3656075 78.5947,26.4043075 74.7691,26.4043075 C71.0403,26.4043075 67.9895,23.3656075 67.9895,19.5552075 Z M80.3864,75.7946075 L69.0549,75.7946075 L69.0549,29.3465075 L80.3864,29.3465075 L80.3864,75.7946075 Z" id="Shape" fill-rule="nonzero"></path>
            <path d="M110.652,46.5175075 C110.652,41.9836075 108.715,39.1378075 104.551,39.1378075 C100.483,39.1378075 98.304,42.0800075 98.304,46.5175075 L98.304,75.7946075 L86.972,75.7946075 L86.972,29.3465075 L98.304,29.3465075 L98.304,32.8193075 C99.418,31.4205075 102.275,28.8160075 107.844,28.8160075 C118.4,28.8160075 121.984,36.1956075 121.984,45.1187075 L121.984,75.7466075 L110.652,75.7466075 L110.652,46.5175075 Z" id="Path" fill-rule="nonzero"></path>
            <polygon id="Path" fill-rule="nonzero" points="150.168 50.7620075 167.068 75.7466075 153.364 75.7466075 139.756 55.2476075 139.756 75.7466075 128.425 75.7466075 128.425 12.3203075 139.756 12.3203075 139.756 47.5786075 153.218 29.3465075 166.487 29.3465075"></polygon>
            <path d="M203.726,28.5748075 C218.012,28.5748075 227.406,38.8002075 227.406,52.5466075 C227.406,66.1966075 217.673,76.6146075 203.726,76.6146075 C189.586,76.6146075 180.143,66.4376075 180.143,52.7396075 C180.143,38.8967075 190.118,28.5748075 203.726,28.5748075 Z M203.823,66.0516075 C211.28,66.0516075 216.075,60.3126075 216.075,52.5946075 C216.075,44.8776075 210.99,39.0414075 203.726,39.0414075 C196.269,39.0414075 191.474,44.7811075 191.474,52.5946075 C191.474,60.4086075 196.511,66.0516075 203.823,66.0516075 Z" id="Shape" fill-rule="nonzero"></path>
            <path d="M244.743,29.3465075 L251.425,29.3465075 L251.425,39.1378075 L244.743,39.1378075 L244.743,75.7946075 L233.411,75.7946075 L233.411,39.1378075 L229.198,39.1378075 L229.198,29.3465075 L233.411,29.3465075 L233.411,27.2725075 C233.411,18.1564075 236.946,12.2720075 247.793,12.2720075 C248.374,12.2720075 250.312,12.2720075 251.425,12.3685075 L251.425,22.1116075 L249.295,22.1116075 C245.469,22.1116075 244.743,24.6197075 244.743,27.4172075 L244.743,29.3465075 Z" id="Path" fill-rule="nonzero"></path>
            <path d="M365.165,59.4716075 C370.136,32.0244075 351.826,5.7611075 324.269,0.810607497 C296.713,-4.1399925 270.345,14.0969075 265.375,41.5439075 C260.404,68.9906075 278.714,95.2546075 306.27,100.204607 C333.827,105.155607 360.195,86.9186075 365.165,59.4716075 Z M291.716,58.5276075 C291.716,63.0616075 293.507,65.9076075 297.527,65.9076075 C301.594,65.9076075 303.774,62.8686075 303.774,58.4306075 L303.774,29.3465075 L315.105,29.3465075 L315.105,75.7946075 L303.87,75.7946075 L303.87,72.3226075 C302.708,73.8656075 299.706,76.3256075 294.379,76.3256075 C284.306,76.3256075 280.336,69.3796075 280.336,59.9266075 L280.336,29.3465075 L291.667,29.3465075 L291.667,58.5276075 L291.716,58.5276075 Z M338.647,46.8072075 C337.622,46.5535075 336.631,46.3082075 335.589,45.9869075 C332.877,45.2152075 331.618,43.9129075 331.521,41.6942075 C331.521,39.3308075 333.313,37.7873075 336.025,37.7873075 C339.511,37.7873075 341.109,39.8613075 341.206,43.4306075 L351.618,43.4306075 C351.521,33.7357075 345.855,28.7677075 336.315,28.7677075 C327.26,28.7677075 320.819,34.5074075 320.819,42.3212075 C320.819,49.3150075 323.967,53.6556075 330.214,56.0196075 C332.153,56.7926075 333.782,57.2246075 335.623,57.7136075 C336.08,57.8346075 336.55,57.9596075 337.042,58.0936075 C340.189,58.9616075 341.545,60.1676075 341.545,62.8686075 C341.545,65.5216075 339.172,67.0166075 336.218,67.0166075 C331.86,67.0166075 330.746,64.0256075 330.746,60.7466075 L319.947,60.7466075 C319.657,68.8016075 323.579,76.3736075 336.073,76.3736075 C344.935,76.3736075 352.538,71.4056075 352.538,61.9516075 C352.538,53.5116075 349.003,49.8938075 341.739,47.6268075 C340.629,47.2976075 339.623,47.0486075 338.647,46.8072075 Z" id="Shape"></path>
            <path d="M365.165,59.4716075 C370.136,32.0244075 351.826,5.7611075 324.269,0.810607497 C296.713,-4.1399925 270.345,14.0969075 265.375,41.5439075 C260.404,68.9906075 278.714,95.2546075 306.27,100.204607 C333.827,105.155607 360.195,86.9186075 365.165,59.4716075 Z M291.716,58.5276075 C291.716,63.0616075 293.507,65.9076075 297.527,65.9076075 C301.594,65.9076075 303.773,62.8686075 303.773,58.4306075 L303.773,29.3465075 L315.105,29.3465075 L315.105,75.7946075 L303.87,75.7946075 L303.87,72.3226075 C302.708,73.8656075 299.706,76.3256075 294.379,76.3256075 C284.306,76.3256075 280.336,69.3796075 280.336,59.9266075 L280.336,29.3465075 L291.667,29.3465075 L291.667,58.5276075 L291.716,58.5276075 Z M338.647,46.8072075 C337.622,46.5535075 336.631,46.3082075 335.589,45.9869075 C332.877,45.2152075 331.618,43.9129075 331.521,41.6942075 C331.521,39.3307075 333.313,37.7873075 336.025,37.7873075 C339.511,37.7873075 341.109,39.8613075 341.206,43.4306075 L351.618,43.4306075 C351.521,33.7357075 345.855,28.7677075 336.315,28.7677075 C327.26,28.7677075 320.819,34.5074075 320.819,42.3212075 C320.819,49.3150075 323.967,53.6556075 330.214,56.0196075 C332.153,56.7926075 333.782,57.2246075 335.623,57.7126075 C336.08,57.8346075 336.55,57.9596075 337.042,58.0936075 C340.189,58.9616075 341.545,60.1676075 341.545,62.8686075 C341.545,65.5216075 339.172,67.0166075 336.218,67.0166075 C331.86,67.0166075 330.746,64.0256075 330.746,60.7466075 L319.947,60.7466075 C319.657,68.8016075 323.579,76.3736075 336.073,76.3736075 C344.935,76.3736075 352.538,71.4056075 352.538,61.9516075 C352.538,53.5116075 349.003,49.8938075 341.739,47.6268075 C340.629,47.2976075 339.623,47.0486075 338.647,46.8072075 Z" id="Shape"></path>
        </g>
    </g>
</svg>